<?xml version="1.0" encoding="iso-8859-1"?>
<!-- Generator: Adobe Illustrator 19.0.0, SVG Export Plug-In . SVG Version: 6.00 Build 0)  -->
<svg version="1.1" id="Capa_1" xmlns="http://www.w3.org/2000/svg" xmlns:xlink="http://www.w3.org/1999/xlink" x="0px" y="0px"
	 viewBox="0 0 460 460" style="enable-background:new 0 0 460 460;" xml:space="preserve">
<g id="XMLID_977_">
	<path id="XMLID_978_" style="fill:#FFEB99;" d="M68.915,67.1c-43.27,43.27-67.1,100.8-67.1,161.993
		c0,43.201,11.977,84.937,34.722,121.295L0,460l109.613-36.537c36.356,22.745,78.093,34.722,121.294,34.722V0
		C169.715,0,112.185,23.83,68.915,67.1z M210,193.142l-73.51,73.716H210v40H80v-40l73.716-73.716H80.284v-40H210V193.142z"/>
	<path id="XMLID_981_" style="fill:#FFDE55;" d="M392.9,67.1C349.63,23.83,292.1,0,230.907,0v458.185
		c61.193,0,118.723-23.83,161.993-67.1c43.27-43.27,67.1-100.8,67.1-161.992C460,167.9,436.17,110.37,392.9,67.1z M380,193.142
		l-73.51,73.716H380v40H250v-40l73.716-73.716h-73.431v-40H380V193.142z"/>
	<polygon id="XMLID_984_" style="fill:#FFF;" points="80.284,193.142 153.716,193.142 80,266.858 80,306.858 210,306.858
		210,266.858 136.49,266.858 210,193.142 210,153.142 80.284,153.142 	"/>
	<polygon id="XMLID_985_" style="fill:#FFF;" points="250.284,193.142 323.716,193.142 250,266.858 250,306.858 380,306.858
		380,266.858 306.49,266.858 380,193.142 380,153.142 250.284,153.142 	"/>
</g>
<g>
</g>
<g>
</g>
<g>
</g>
<g>
</g>
<g>
</g>
<g>
</g>
<g>
</g>
<g>
</g>
<g>
</g>
<g>
</g>
<g>
</g>
<g>
</g>
<g>
</g>
<g>
</g>
<g>
</g>
</svg>
