<?xml version="1.0" encoding="iso-8859-1"?>
<!-- Generator: Adobe Illustrator 19.0.0, SVG Export Plug-In . SVG Version: 6.00 Build 0)  -->
<svg version="1.1" id="Layer_1" xmlns="http://www.w3.org/2000/svg" xmlns:xlink="http://www.w3.org/1999/xlink" x="0px" y="0px"
	 viewBox="0 0 469.333 469.333" style="enable-background:new 0 0 469.333 469.333;" xml:space="preserve">
<g>
	<g>
		<path d="M466.208,67.125c-4.167-4.167-10.917-4.167-15.083,0L416,102.25l-48.917-48.917l35.125-35.125
			c4.167-4.167,4.167-10.917,0-15.083c-4.167-4.167-10.917-4.167-15.083,0L352,38.25l-13.792-13.792
			c-2.031-2.042-4.667-2.917-7.698-3.125c-2.885,0.042-5.635,1.25-7.615,3.354L291.75,57.792
			c-9.781,9.781-12.875,22.167-15.354,32.125c-1.552,6.229-3.01,12.104-5.469,14.563c-7.083,7.083-12.396,17.448-14.219,27.74
			c-2.406,13.594,1.333,26.135,9.917,34.677l8.984,10.595c-21.398,22.647-40.569,77.074-40.932,151.009
			c-3.759-9.901-8.167-19.327-12.941-28.494c8.434-12.978,12.931-27.096,12.931-42.298c0-83.667-113.323-151.042-207.156-151.042
			C12.344,106.667,0,119.01,0,134.177c0,93.833,67.375,207.156,151.052,207.156c20.71,0,39.477-8.126,55.939-23.74
			c18.658,39.378,27.676,85.846,27.676,141.073c0,5.896,4.771,10.667,10.667,10.667c5.896,0,10.667-4.771,10.667-10.667v-128
			c0-70.549,18.091-119.022,33.454-136.846l7.025,8.284c7.365,7.365,16.885,11.229,27.385,11.229c2.583,0,5.24-0.229,7.927-0.708
			c10.302-1.823,20.667-7.135,27.75-14.219c2.49-2.49,9.865-4.406,16.375-6.083c10.917-2.833,24.51-6.344,33.698-15.573
			l34.698-30.021c2.24-1.938,3.573-4.719,3.677-7.677c0.115-2.958-1.021-5.833-3.115-7.927l-13.792-13.792l35.125-35.125
			C470.375,78.042,470.375,71.292,466.208,67.125z M209.142,278.32c-29.121-44.556-72.086-79.648-129.965-106.654
			C73.844,169.188,67.5,171.5,65,176.823c-2.49,5.333-0.177,11.688,5.156,14.177c57.967,27.052,99.486,61.811,126.353,106.803
			c-0.87,0.956-1.529,1.966-2.467,2.905C181.24,313.51,166.771,320,151.052,320C81.187,320,21.333,217.823,21.333,134.177
			c0-3.406,2.771-6.177,6.177-6.177c83.646,0,185.823,59.854,185.823,129.708C213.333,264.866,211.812,271.723,209.142,278.32z
			 M395.094,161.146c-5.635,5.635-15.24,8.115-24.521,10.521c-10.031,2.594-19.51,5.052-26.115,11.656
			c-3.021,3.021-9.125,7.01-16.385,8.292c-6.708,1.229-12.271-0.344-15.906-3.948l-29.854-35.208
			c-10.188-10.188-2.479-26.719,3.698-32.896c6.646-6.646,8.906-15.708,11.094-24.49c2.125-8.531,4.135-16.604,9.958-22.427
			l23.833-25.333l90.792,90.792L395.094,161.146z"/>
	</g>
</g>
<g>
</g>
<g>
</g>
<g>
</g>
<g>
</g>
<g>
</g>
<g>
</g>
<g>
</g>
<g>
</g>
<g>
</g>
<g>
</g>
<g>
</g>
<g>
</g>
<g>
</g>
<g>
</g>
<g>
</g>
</svg>
